HIERARCHY
ROOT Hips
{
	OFFSET	0.00	0.00	0.00
	CHANNELS 6 Xposition Yposition Zposition Zrotation Xrotation Yrotation
	JOINT LeftUpLeg
	{
		OFFSET	 0.126116	-0.065224	 0.014019
		CHANNELS 3 Zrotation Xrotation Yrotation
		JOINT LeftLeg
		{
			OFFSET	 0.000000	 0.569914	 0.000000
			CHANNELS 3 Zrotation Xrotation Yrotation
			JOINT LeftFoot
			{
				OFFSET	 0.000000	 0.544423	 0.000000
				CHANNELS 3 Zrotation Xrotation Yrotation
				JOINT LeftToeBase
				{
					OFFSET	 0.000000	 0.207117	 0.000000
					CHANNELS 3 Zrotation Xrotation Yrotation
					End Site
					{
						OFFSET	 0.000000	 0.207117	 0.000000
					}
				}
			}
		}
	}
	JOINT RightUpLeg
	{
		OFFSET	-0.124023	-0.065224	 0.008373
		CHANNELS 3 Zrotation Xrotation Yrotation
		JOINT RightLeg
		{
			OFFSET	 0.000000	 0.570047	 0.000000
			CHANNELS 3 Zrotation Xrotation Yrotation
			JOINT RightFoot
			{
				OFFSET	 0.000000	 0.544354	 0.000000
				CHANNELS 3 Zrotation Xrotation Yrotation
				JOINT RightToeBase
				{
					OFFSET	 0.000000	 0.207540	 0.000000
					CHANNELS 3 Zrotation Xrotation Yrotation
					End Site
					{
						OFFSET	 0.000000	 0.207540	 0.000000
					}
				}
			}
		}
	}
	JOINT Spine
	{
		OFFSET	 0.000184	 0.117403	 0.007763
		CHANNELS 3 Zrotation Xrotation Yrotation
		JOINT Spine1
		{
			OFFSET	 0.000000	 0.137269	 0.000000
			CHANNELS 3 Zrotation Xrotation Yrotation
			JOINT Spine2
			{
				OFFSET	 0.000000	 0.156879	 0.000000
				CHANNELS 3 Zrotation Xrotation Yrotation
				JOINT LeftShoulder
				{
					OFFSET	 0.080501	 0.160143	 0.002496
					CHANNELS 3 Zrotation Xrotation Yrotation
					JOINT LeftArm
					{
						OFFSET	 0.000000	 0.164363	 0.000000
						CHANNELS 3 Zrotation Xrotation Yrotation
						JOINT LeftForeArm
						{
							OFFSET	 0.000000	 0.364576	 0.000000
							CHANNELS 3 Zrotation Xrotation Yrotation
							JOINT LeftHand
							{
								OFFSET	 0.000000	 0.360812	 0.000000
								CHANNELS 3 Zrotation Xrotation Yrotation
								JOINT LeftHandIndex1
								{
									OFFSET	 0.000000	 0.086006	 0.000000
									CHANNELS 3 Zrotation Xrotation Yrotation
									JOINT LeftHandIndex2
									{
										OFFSET	 0.000000	 0.047237	 0.000000
										CHANNELS 3 Zrotation Xrotation Yrotation
										JOINT LeftHandIndex3
										{
											OFFSET	-0.004284	 0.038165	 0.000551
											CHANNELS 3 Zrotation Xrotation Yrotation
											End Site
											{
												OFFSET	-0.004284	 0.038165	 0.000551
											}
										}
									}
								}
							}
						}
					}
				}
				JOINT Neck
				{
					OFFSET	 0.000000	 0.176489	 0.000000
					CHANNELS 3 Zrotation Xrotation Yrotation
					JOINT Head
					{
						OFFSET	 0.000000	 0.077941	 0.001747
						CHANNELS 3 Zrotation Xrotation Yrotation
						End Site
						{
							OFFSET	 0.000000	 0.077941	 0.001747
						}
					}
				}
				JOINT RightShoulder
				{
					OFFSET	-0.080363	 0.159706	-0.000306
					CHANNELS 3 Zrotation Xrotation Yrotation
					JOINT RightArm
					{
						OFFSET	 0.000000	 0.164196	 0.000000
						CHANNELS 3 Zrotation Xrotation Yrotation
						JOINT RightForeArm
						{
							OFFSET	 0.000000	 0.365611	 0.000000
							CHANNELS 3 Zrotation Xrotation Yrotation
							JOINT RightHand
							{
								OFFSET	 0.000000	 0.360648	 0.000000
								CHANNELS 3 Zrotation Xrotation Yrotation
								JOINT RightHandIndex1
								{
									OFFSET	 0.000000	 0.069977	 0.000000
									CHANNELS 3 Zrotation Xrotation Yrotation
									JOINT RightHandIndex2
									{
										OFFSET	 0.000000	 0.052305	 0.000000
										CHANNELS 3 Zrotation Xrotation Yrotation
										JOINT RightHandIndex3
										{
											OFFSET	 0.009002	 0.042196	 0.000782
											CHANNELS 3 Zrotation Xrotation Yrotation
											End Site
											{
												OFFSET	 0.009002	 0.042196	 0.000782
											}
										}
									}
								}
							}
						}
					}
				}
			}
		}
	}
}
MOTION
Frames:    6
Frame Time: 0.03333334
-0.010367	 1.189957	-4.191616	-1.483088	 0.913269	-168.246000	-173.571700	-16.033660	-17.198290	 5.078825	-33.738290	 3.614485	-24.759640	 60.096770	 20.656410	 7.947788	 69.943020	-6.575091	 169.992500	 34.522130	 28.319390	-2.385766	-28.969030	 10.604140	-13.456000	 60.294460	 0.176945	-1.795405	 34.629600	 2.951107	 0.196953	 7.173998	 11.679120	-2.512281	 3.518750	 1.183500	 3.622015	-4.063156	-12.907190	-120.990700	 8.968873	 94.768860	 26.886560	 32.816310	-7.139465	 41.511480	-1.212327	 19.903060	 36.113560	-42.407620	 24.482380	 5.046614	 20.865880	-1.926040	-5.863916	 24.431170	 2.703781	 5.479751	 7.844519	-0.109797	-0.097902	-5.184064	 0.265355	-1.681083	-1.612106	-4.806904	 119.029400	-2.419549	-89.724660	 6.800970	 33.475140	-1.945788	-19.947260	-0.195707	-19.342830	 7.075031	-23.966270	-10.946860	-1.625022	 9.164514	 0.939109	 13.081300	 29.001690	-6.701933	-8.441718	 8.016807	-0.204895
-0.002391	 1.213597	-4.374282	-0.379624	 2.473740	-171.426100	-168.527600	-1.843014	-23.795170	 12.091310	-57.747160	 12.092100	-24.756160	 64.361320	 21.710340	 3.511029	 50.280280	-3.429874	 174.027500	 27.910960	 26.511280	-3.137944	-36.054210	 5.090837	-22.787800	 67.377400	 13.971860	-1.612696	 32.464650	 2.858561	 2.557814	 7.835539	 0.142561	-2.670141	 3.165842	 1.928603	 3.675005	-3.715013	-12.599800	-120.535400	 8.136234	 94.317700	 17.325430	 39.060360	-2.554908	 43.339130	-1.128078	 24.010010	 35.069530	-33.387560	 38.029000	 5.011647	 22.754730	-2.029699	-5.871771	 26.027030	 2.885081	 5.568958	 9.979872	-0.077961	-0.002315	-5.041880	 0.022277	-1.792938	-1.544342	-5.421232	 119.561900	-1.436535	-90.195660	-0.212050	 39.064910	 1.285744	-23.385030	-0.203931	-23.446930	 10.645030	-31.731770	-0.251539	-2.059686	 13.762450	 1.150189	 13.617390	 33.396180	-7.920716	-8.484044	 11.398740	-0.418074
 0.004544	 1.236966	-4.570642	 0.654282	 3.782856	-174.260400	-162.212800	 12.068300	-32.746490	 24.635230	-72.360370	 24.180350	-17.289490	 60.278870	 18.371590	 1.652659	 32.888770	-2.850342	 177.867900	 16.576730	 24.974300	-3.066311	-35.427620	 1.211349	-31.227030	 72.145530	 26.747620	-1.458361	 30.554500	 2.785336	 4.863280	 7.782780	-9.668283	-2.888219	 3.277164	 3.028327	 3.738571	-3.618935	-12.330410	-120.140000	 7.398773	 93.925970	 13.168640	 43.870270	-0.720643	 31.762330	-0.572680	 25.809470	 36.068850	-22.210910	 47.139430	 4.983495	 24.421150	-2.121343	-5.883516	 27.434920	 3.047356	 5.647183	 11.863760	-0.052506	 0.082499	-4.916775	-0.192328	-1.892073	-1.483919	-5.963198	 120.038300	-0.572996	-90.618640	-5.401765	 45.003390	 3.242413	-32.970920	-0.473870	-25.795380	 17.793250	-33.624600	 9.939694	-2.466111	 17.817120	 1.370774	 14.212340	 37.263560	-9.094884	-8.511080	 14.382370	-0.606392
 0.002830	 1.252171	-4.769411	-0.656172	 2.239752	-177.087800	-163.548000	 28.846550	-44.208910	 13.994140	-61.272200	 9.548204	-7.488357	 69.466430	 15.813120	 1.418506	 30.059230	-2.768459	 178.025400	 5.493420	 23.469620	-2.530315	-30.418430	-1.690744	-49.970010	 75.737460	 46.738240	-1.752940	 34.135730	 2.929051	 4.124825	 6.854650	-18.034480	-3.059090	 3.985112	 4.309669	 3.440836	-4.259916	-11.756380	-120.142900	 5.890751	 93.196640	-9.355858	 48.068990	 14.853300	 39.542030	-0.872566	 26.762020	 23.020040	-12.308910	 55.961250	 5.050314	 26.997270	-2.174221	-5.913898	 29.796950	 3.325335	 5.751429	 14.383930	-0.022298	 0.114966	-4.815513	-0.474019	-2.440382	-2.142224	-6.375965	 119.671400	 0.637049	-91.181400	-23.380300	 51.099470	 9.448078	-25.452570	-0.195451	-26.371700	 2.534048	-39.956700	 14.142200	-2.764092	 19.228330	 1.494781	 14.491670	 38.829490	-9.603633	-8.522704	 16.197460	-0.721543
-0.003551	 1.243263	-4.980798	-2.024030	 0.710060	 179.826400	 178.978900	 25.105910	-40.323150	 0.675321	-5.081535	-4.965381	-8.844620	 59.085900	 24.324990	 1.274550	 28.192710	-2.705657	 176.802700	-5.592759	 20.971520	-2.086599	-25.836870	-5.737614	-60.821160	 74.799710	 61.650160	-2.445975	 41.448430	 3.300120	 2.717735	 6.448987	-23.563000	-3.292349	 4.827414	 5.440807	 3.188154	-4.896402	-11.188000	-120.007100	 4.203533	 92.372480	-22.970040	 49.975860	 23.268850	 30.865650	-0.551743	 25.289520	 11.871420	-5.587609	 62.754850	 5.029508	 28.776040	-2.120327	-5.963359	 32.372390	 3.638131	 5.877548	 17.435260	 0.008368	 0.113041	-4.806451	-0.736114	-2.771090	-2.758060	-6.867237	 119.401000	 1.710414	-91.675760	-30.294930	 44.181020	 8.084841	-24.510090	-0.196466	-25.138030	-13.658450	-31.268350	 11.599900	-2.979230	 20.750490	 1.584063	 14.846950	 40.644680	-10.221510	-8.531365	 18.251300	-0.852747
-0.015792	 1.196000	-5.213571	-2.565348	 0.279323	 177.159500	-178.363800	 37.512020	-36.500690	 2.030996	-14.969580	-10.202810	-32.945210	 68.798800	 47.223340	 1.241092	 27.749710	-2.691690	 173.679100	-11.978190	 16.459040	-2.855946	-33.529610	-9.088285	-42.017620	 73.106380	 53.772300	-4.590578	 56.284170	 5.241701	 1.377860	 6.328131	-23.675600	-3.367193	 4.691442	 6.016311	 3.106311	-4.765446	-10.903720	-119.545700	 2.857521	 91.702170	-40.526410	 48.331840	 32.381030	 34.826630	-0.853004	 21.989330	-5.481975	-3.357113	 65.370770	 4.733787	 27.114230	-1.776785	-6.001592	 33.907360	 3.830234	 5.989121	 20.123810	 0.029937	 0.015904	-5.060094	-0.827396	-2.281092	-2.888622	-7.382627	 119.570700	 1.890378	-91.771220	-23.613430	 13.657780	 10.656920	-22.013590	-0.204540	-21.677680	-22.185580	 4.454064	 14.982490	-2.882621	 22.549620	 1.537375	 15.352690	 42.950750	-11.056070	-8.535238	 20.519820	-0.999222
